<mxfile host="app.diagrams.net" agent="Mozilla/5.0 (Windows NT 10.0; Win64; x64) AppleWebKit/537.36 (KHTML, like Gecko) Chrome/133.0.0.0 Safari/537.36" version="26.0.16">
  <diagram name="Page-1" id="eO1DthjizgPGDMY6kaXX">
    <mxGraphModel dx="1195" dy="678" grid="1" gridSize="10" guides="1" tooltips="1" connect="1" arrows="1" fold="1" page="1" pageScale="1" pageWidth="1200" pageHeight="1920" math="0" shadow="0">
      <root>
        <mxCell id="0" />
        <mxCell id="1" parent="0" />
        <mxCell id="F0u6j7_8wjAT6tHYz7Na-1" value="&lt;b&gt;&lt;font style=&quot;font-size: 36px;&quot;&gt;High Level Architecture&amp;nbsp;&lt;/font&gt;&lt;/b&gt;" style="text;html=1;whiteSpace=wrap;overflow=hidden;rounded=0;" vertex="1" parent="1">
          <mxGeometry x="80" y="20" width="480" height="60" as="geometry" />
        </mxCell>
        <mxCell id="F0u6j7_8wjAT6tHYz7Na-2" value="" style="rounded=0;whiteSpace=wrap;html=1;" vertex="1" parent="1">
          <mxGeometry x="150" y="160" width="120" height="560" as="geometry" />
        </mxCell>
        <mxCell id="F0u6j7_8wjAT6tHYz7Na-3" value="&lt;font style=&quot;font-size: 16px;&quot;&gt;Sources&lt;/font&gt;" style="rounded=0;whiteSpace=wrap;html=1;dashed=1;" vertex="1" parent="1">
          <mxGeometry x="165" y="140" width="90" height="30" as="geometry" />
        </mxCell>
        <mxCell id="F0u6j7_8wjAT6tHYz7Na-4" value="" style="rounded=0;whiteSpace=wrap;html=1;" vertex="1" parent="1">
          <mxGeometry x="310" y="160" width="480" height="560" as="geometry" />
        </mxCell>
        <mxCell id="F0u6j7_8wjAT6tHYz7Na-5" value="&lt;font style=&quot;font-size: 16px;&quot;&gt;Data Warehouse&lt;/font&gt;" style="rounded=0;whiteSpace=wrap;html=1;dashed=1;" vertex="1" parent="1">
          <mxGeometry x="452.5" y="140" width="195" height="30" as="geometry" />
        </mxCell>
        <mxCell id="F0u6j7_8wjAT6tHYz7Na-6" value="" style="rounded=0;whiteSpace=wrap;html=1;" vertex="1" parent="1">
          <mxGeometry x="830" y="160" width="120" height="560" as="geometry" />
        </mxCell>
        <mxCell id="F0u6j7_8wjAT6tHYz7Na-7" value="&lt;font style=&quot;font-size: 16px;&quot;&gt;Consume&lt;/font&gt;" style="rounded=0;whiteSpace=wrap;html=1;dashed=1;" vertex="1" parent="1">
          <mxGeometry x="845" y="140" width="90" height="30" as="geometry" />
        </mxCell>
        <mxCell id="F0u6j7_8wjAT6tHYz7Na-8" value="Bronze Layer" style="rounded=0;whiteSpace=wrap;html=1;fillColor=#ffe6cc;strokeColor=#d79b00;fontSize=19;fontStyle=1" vertex="1" parent="1">
          <mxGeometry x="340" y="200" width="130" height="20" as="geometry" />
        </mxCell>
        <mxCell id="F0u6j7_8wjAT6tHYz7Na-9" value="" style="rounded=0;whiteSpace=wrap;html=1;fontSize=19;" vertex="1" parent="1">
          <mxGeometry x="340" y="230" width="130" height="460" as="geometry" />
        </mxCell>
        <mxCell id="F0u6j7_8wjAT6tHYz7Na-10" value="Silver Layer" style="rounded=0;whiteSpace=wrap;html=1;fillColor=#f5f5f5;strokeColor=#666666;fontSize=19;fontColor=#333333;fontStyle=1" vertex="1" parent="1">
          <mxGeometry x="490" y="200" width="130" height="20" as="geometry" />
        </mxCell>
        <mxCell id="F0u6j7_8wjAT6tHYz7Na-11" value="" style="rounded=0;whiteSpace=wrap;html=1;fontSize=19;" vertex="1" parent="1">
          <mxGeometry x="485" y="230" width="130" height="460" as="geometry" />
        </mxCell>
        <mxCell id="F0u6j7_8wjAT6tHYz7Na-12" value="Gold Layer" style="rounded=0;whiteSpace=wrap;html=1;fillColor=#fff2cc;strokeColor=#d6b656;fontSize=19;fontStyle=1" vertex="1" parent="1">
          <mxGeometry x="633" y="200" width="130" height="20" as="geometry" />
        </mxCell>
        <mxCell id="F0u6j7_8wjAT6tHYz7Na-13" value="" style="rounded=0;whiteSpace=wrap;html=1;fontSize=19;" vertex="1" parent="1">
          <mxGeometry x="633" y="230" width="130" height="460" as="geometry" />
        </mxCell>
        <mxCell id="F0u6j7_8wjAT6tHYz7Na-14" value="&lt;b&gt;&lt;font style=&quot;font-size: 11px;&quot;&gt;CRM&lt;/font&gt;&lt;/b&gt;" style="image;aspect=fixed;html=1;points=[];align=center;fontSize=12;image=img/lib/azure2/general/Folder_Blank.svg;" vertex="1" parent="1">
          <mxGeometry x="188" y="250" width="44" height="35.71" as="geometry" />
        </mxCell>
        <mxCell id="F0u6j7_8wjAT6tHYz7Na-15" value="" style="verticalLabelPosition=bottom;html=1;verticalAlign=top;align=center;strokeColor=none;fillColor=#00BEF2;shape=mxgraph.azure.cloud_services_configuration_file;pointerEvents=1;" vertex="1" parent="1">
          <mxGeometry x="220" y="270" width="20" height="30" as="geometry" />
        </mxCell>
        <mxCell id="F0u6j7_8wjAT6tHYz7Na-20" value="&lt;b&gt;&lt;font style=&quot;font-size: 11px;&quot;&gt;ERP&lt;/font&gt;&lt;/b&gt;" style="image;aspect=fixed;html=1;points=[];align=center;fontSize=12;image=img/lib/azure2/general/Folder_Blank.svg;" vertex="1" parent="1">
          <mxGeometry x="188" y="330" width="44" height="35.71" as="geometry" />
        </mxCell>
        <mxCell id="F0u6j7_8wjAT6tHYz7Na-21" value="" style="verticalLabelPosition=bottom;html=1;verticalAlign=top;align=center;strokeColor=none;fillColor=#00BEF2;shape=mxgraph.azure.cloud_services_configuration_file;pointerEvents=1;" vertex="1" parent="1">
          <mxGeometry x="220" y="350" width="20" height="30" as="geometry" />
        </mxCell>
        <mxCell id="F0u6j7_8wjAT6tHYz7Na-26" value="&lt;b&gt;Object type&lt;/b&gt; : CSV files" style="shape=link;html=1;rounded=0;width=42.5;" edge="1" parent="1">
          <mxGeometry width="100" relative="1" as="geometry">
            <mxPoint x="160" y="460" as="sourcePoint" />
            <mxPoint x="260" y="460" as="targetPoint" />
          </mxGeometry>
        </mxCell>
        <mxCell id="F0u6j7_8wjAT6tHYz7Na-27" value="" style="shape=datastore;whiteSpace=wrap;html=1;fillColor=#ffe6cc;strokeColor=#d79b00;" vertex="1" parent="1">
          <mxGeometry x="375" y="270" width="60" height="60" as="geometry" />
        </mxCell>
        <mxCell id="F0u6j7_8wjAT6tHYz7Na-28" value="" style="shape=datastore;whiteSpace=wrap;html=1;fillColor=#f5f5f5;strokeColor=#666666;fontColor=#333333;" vertex="1" parent="1">
          <mxGeometry x="520" y="270" width="60" height="60" as="geometry" />
        </mxCell>
        <mxCell id="F0u6j7_8wjAT6tHYz7Na-29" value="" style="shape=datastore;whiteSpace=wrap;html=1;fillColor=#fff2cc;strokeColor=#d6b656;" vertex="1" parent="1">
          <mxGeometry x="668" y="270" width="60" height="60" as="geometry" />
        </mxCell>
        <mxCell id="F0u6j7_8wjAT6tHYz7Na-30" value="" style="shape=flexArrow;endArrow=classic;html=1;rounded=0;width=12.5;endSize=9.725;entryX=1;entryY=0.5;entryDx=0;entryDy=0;exitX=1;exitY=0.446;exitDx=0;exitDy=0;exitPerimeter=0;fillColor=#1ba1e2;strokeColor=#006EAF;" edge="1" parent="1">
          <mxGeometry width="50" height="50" relative="1" as="geometry">
            <mxPoint x="270" y="362.02" as="sourcePoint" />
            <mxPoint x="340" y="362.26" as="targetPoint" />
          </mxGeometry>
        </mxCell>
        <mxCell id="F0u6j7_8wjAT6tHYz7Na-32" value="" style="shape=flexArrow;endArrow=classic;html=1;rounded=0;width=12.5;endSize=9.725;entryX=1;entryY=0.5;entryDx=0;entryDy=0;fillColor=#1ba1e2;strokeColor=#006EAF;" edge="1" parent="1">
          <mxGeometry width="50" height="50" relative="1" as="geometry">
            <mxPoint x="460" y="364.58" as="sourcePoint" />
            <mxPoint x="510" y="364.58" as="targetPoint" />
          </mxGeometry>
        </mxCell>
        <mxCell id="F0u6j7_8wjAT6tHYz7Na-33" value="" style="shape=flexArrow;endArrow=classic;html=1;rounded=0;width=12.5;endSize=9.725;entryX=1;entryY=0.5;entryDx=0;entryDy=0;fillColor=#1ba1e2;strokeColor=#006EAF;" edge="1" parent="1">
          <mxGeometry width="50" height="50" relative="1" as="geometry">
            <mxPoint x="610" y="364.88" as="sourcePoint" />
            <mxPoint x="668" y="364.88" as="targetPoint" />
          </mxGeometry>
        </mxCell>
        <mxCell id="F0u6j7_8wjAT6tHYz7Na-34" value="" style="shape=flexArrow;endArrow=classic;html=1;rounded=0;width=12.5;endSize=9.725;entryX=1;entryY=0.5;entryDx=0;entryDy=0;exitX=1;exitY=0.446;exitDx=0;exitDy=0;exitPerimeter=0;fillColor=#1ba1e2;strokeColor=#006EAF;" edge="1" parent="1">
          <mxGeometry width="50" height="50" relative="1" as="geometry">
            <mxPoint x="775" y="365.71" as="sourcePoint" />
            <mxPoint x="845" y="365.71" as="targetPoint" />
          </mxGeometry>
        </mxCell>
        <mxCell id="F0u6j7_8wjAT6tHYz7Na-35" value="Cleaned, Standardized Data" style="text;html=1;align=center;verticalAlign=middle;whiteSpace=wrap;rounded=0;" vertex="1" parent="1">
          <mxGeometry x="510" y="332.85" width="90" height="30" as="geometry" />
        </mxCell>
        <mxCell id="F0u6j7_8wjAT6tHYz7Na-36" value="Business-Ready Data" style="text;html=1;align=center;verticalAlign=middle;whiteSpace=wrap;rounded=0;" vertex="1" parent="1">
          <mxGeometry x="653" y="332.85" width="90" height="30" as="geometry" />
        </mxCell>
        <mxCell id="F0u6j7_8wjAT6tHYz7Na-37" value="Raw Data" style="text;html=1;align=center;verticalAlign=middle;whiteSpace=wrap;rounded=0;" vertex="1" parent="1">
          <mxGeometry x="360" y="335.71" width="90" height="30" as="geometry" />
        </mxCell>
        <mxCell id="F0u6j7_8wjAT6tHYz7Na-38" value="" style="endArrow=none;html=1;rounded=0;exitX=0.115;exitY=0.565;exitDx=0;exitDy=0;exitPerimeter=0;fillColor=#f5f5f5;strokeColor=#666666;" edge="1" parent="1">
          <mxGeometry width="50" height="50" relative="1" as="geometry">
            <mxPoint x="517.48" y="400.0000000000001" as="sourcePoint" />
            <mxPoint x="592.53" y="400.1" as="targetPoint" />
            <Array as="points">
              <mxPoint x="557.53" y="400.1" />
            </Array>
          </mxGeometry>
        </mxCell>
        <mxCell id="F0u6j7_8wjAT6tHYz7Na-39" value="" style="endArrow=none;html=1;rounded=0;exitX=0.115;exitY=0.565;exitDx=0;exitDy=0;exitPerimeter=0;fillColor=#fff2cc;strokeColor=#d6b656;" edge="1" parent="1">
          <mxGeometry width="50" height="50" relative="1" as="geometry">
            <mxPoint x="660.48" y="400.0000000000001" as="sourcePoint" />
            <mxPoint x="735.53" y="400.1" as="targetPoint" />
            <Array as="points">
              <mxPoint x="700.53" y="400.1" />
            </Array>
          </mxGeometry>
        </mxCell>
        <mxCell id="F0u6j7_8wjAT6tHYz7Na-40" value="" style="endArrow=none;html=1;rounded=0;exitX=0.115;exitY=0.565;exitDx=0;exitDy=0;exitPerimeter=0;fillColor=#ffe6cc;strokeColor=#d79b00;" edge="1" parent="1">
          <mxGeometry width="50" height="50" relative="1" as="geometry">
            <mxPoint x="367.48" y="400.0000000000001" as="sourcePoint" />
            <mxPoint x="442.53" y="400.1" as="targetPoint" />
            <Array as="points">
              <mxPoint x="407.53" y="400.1" />
            </Array>
          </mxGeometry>
        </mxCell>
        <mxCell id="F0u6j7_8wjAT6tHYz7Na-41" value="&lt;div style=&quot;text-align: left;&quot;&gt;&lt;span style=&quot;font-size: 10px; background-color: transparent; color: light-dark(rgb(0, 0, 0), rgb(255, 255, 255));&quot;&gt;&lt;b&gt;Object Type&lt;/b&gt; : Table&lt;/span&gt;&lt;/div&gt;&lt;div style=&quot;text-align: left;&quot;&gt;&lt;font style=&quot;font-size: 10px;&quot;&gt;&lt;b&gt;Load &lt;/b&gt;:&lt;/font&gt;&lt;/div&gt;&lt;div&gt;&lt;ul&gt;&lt;li style=&quot;text-align: left;&quot;&gt;&lt;span style=&quot;background-color: transparent; color: light-dark(rgb(0, 0, 0), rgb(255, 255, 255));&quot;&gt;&lt;font style=&quot;font-size: 10px;&quot;&gt;Batch Processing&lt;/font&gt;&lt;/span&gt;&lt;/li&gt;&lt;li style=&quot;text-align: left;&quot;&gt;&lt;font style=&quot;font-size: 10px;&quot;&gt;Full Load (Trunc &amp;amp; Insert)&lt;/font&gt;&lt;/li&gt;&lt;/ul&gt;&lt;div style=&quot;text-align: left;&quot;&gt;&lt;span style=&quot;font-size: 10px;&quot;&gt;No &lt;b&gt;Transformations&lt;/b&gt;&lt;/span&gt;&lt;/div&gt;&lt;/div&gt;" style="text;html=1;align=center;verticalAlign=middle;whiteSpace=wrap;rounded=0;strokeWidth=2;" vertex="1" parent="1">
          <mxGeometry x="350" y="420" width="110" height="160" as="geometry" />
        </mxCell>
        <mxCell id="F0u6j7_8wjAT6tHYz7Na-42" value="&lt;div style=&quot;text-align: left;&quot;&gt;&lt;span style=&quot;font-size: 10px; background-color: transparent; color: light-dark(rgb(0, 0, 0), rgb(255, 255, 255));&quot;&gt;&lt;b&gt;Object Type&lt;/b&gt; : Table&lt;/span&gt;&lt;/div&gt;&lt;div style=&quot;text-align: left;&quot;&gt;&lt;font style=&quot;font-size: 10px;&quot;&gt;&lt;b&gt;Load &lt;/b&gt;:&lt;/font&gt;&lt;/div&gt;&lt;div&gt;&lt;ul&gt;&lt;li style=&quot;text-align: left;&quot;&gt;&lt;span style=&quot;background-color: transparent; color: light-dark(rgb(0, 0, 0), rgb(255, 255, 255));&quot;&gt;&lt;font style=&quot;font-size: 10px;&quot;&gt;Batch Processing&lt;/font&gt;&lt;/span&gt;&lt;/li&gt;&lt;li style=&quot;text-align: left;&quot;&gt;&lt;font style=&quot;font-size: 10px;&quot;&gt;Full Load (Trunc &amp;amp; Insert)&lt;/font&gt;&lt;/li&gt;&lt;/ul&gt;&lt;div style=&quot;text-align: left;&quot;&gt;&lt;span style=&quot;font-size: 10px;&quot;&gt;&lt;b&gt;Transformations&lt;/b&gt; :&lt;/span&gt;&lt;/div&gt;&lt;/div&gt;&lt;div style=&quot;&quot;&gt;&lt;ul&gt;&lt;li style=&quot;text-align: left;&quot;&gt;&lt;span style=&quot;font-size: 10px;&quot;&gt;Data Cleaning&lt;/span&gt;&lt;/li&gt;&lt;li style=&quot;text-align: left;&quot;&gt;&lt;span style=&quot;font-size: 10px;&quot;&gt;Data Standardized&lt;/span&gt;&lt;/li&gt;&lt;li style=&quot;text-align: left;&quot;&gt;&lt;span style=&quot;font-size: 10px;&quot;&gt;Data Normalization&lt;/span&gt;&lt;/li&gt;&lt;li style=&quot;text-align: left;&quot;&gt;&lt;span style=&quot;font-size: 10px;&quot;&gt;Data Enrichment&lt;/span&gt;&lt;/li&gt;&lt;/ul&gt;&lt;/div&gt;" style="text;html=1;align=center;verticalAlign=middle;whiteSpace=wrap;rounded=0;strokeWidth=2;" vertex="1" parent="1">
          <mxGeometry x="495" y="410" width="110" height="260" as="geometry" />
        </mxCell>
        <mxCell id="F0u6j7_8wjAT6tHYz7Na-43" value="&lt;div style=&quot;text-align: left;&quot;&gt;&lt;span style=&quot;font-size: 10px; background-color: transparent; color: light-dark(rgb(0, 0, 0), rgb(255, 255, 255));&quot;&gt;Object Type : Table&lt;/span&gt;&lt;/div&gt;&lt;div style=&quot;text-align: left;&quot;&gt;&lt;span style=&quot;font-size: 10px;&quot;&gt;No Load&lt;/span&gt;&lt;/div&gt;&lt;div style=&quot;text-align: left;&quot;&gt;&lt;span style=&quot;font-size: 10px;&quot;&gt;&lt;br&gt;&lt;/span&gt;&lt;/div&gt;&lt;div&gt;&lt;div style=&quot;text-align: left;&quot;&gt;&lt;span style=&quot;font-size: 10px;&quot;&gt;Transformations :&lt;/span&gt;&lt;/div&gt;&lt;/div&gt;&lt;div style=&quot;&quot;&gt;&lt;ul&gt;&lt;li style=&quot;text-align: left;&quot;&gt;&lt;span style=&quot;font-size: 10px;&quot;&gt;Data Integration&lt;/span&gt;&lt;/li&gt;&lt;li style=&quot;text-align: left;&quot;&gt;&lt;span style=&quot;font-size: 10px;&quot;&gt;Aggregation&amp;nbsp;&lt;/span&gt;&lt;/li&gt;&lt;li style=&quot;text-align: left;&quot;&gt;&lt;span style=&quot;font-size: 10px;&quot;&gt;Business Logics&lt;/span&gt;&lt;/li&gt;&lt;/ul&gt;&lt;div style=&quot;text-align: left;&quot;&gt;&lt;span style=&quot;font-size: 10px;&quot;&gt;&lt;b&gt;Data Model&lt;/b&gt; :&lt;/span&gt;&lt;/div&gt;&lt;div style=&quot;text-align: left;&quot;&gt;&lt;ul&gt;&lt;li&gt;&lt;span style=&quot;font-size: 10px;&quot;&gt;Star Schema&lt;/span&gt;&lt;/li&gt;&lt;li&gt;&lt;span style=&quot;font-size: 10px;&quot;&gt;Flat Table&lt;/span&gt;&lt;/li&gt;&lt;li&gt;&lt;span style=&quot;font-size: 10px;&quot;&gt;Aggregated Table&lt;/span&gt;&lt;/li&gt;&lt;/ul&gt;&lt;/div&gt;&lt;/div&gt;" style="text;html=1;align=center;verticalAlign=middle;whiteSpace=wrap;rounded=0;strokeWidth=2;" vertex="1" parent="1">
          <mxGeometry x="647.5" y="410" width="110" height="260" as="geometry" />
        </mxCell>
        <mxCell id="F0u6j7_8wjAT6tHYz7Na-44" value="" style="image;aspect=fixed;html=1;points=[];align=center;fontSize=12;image=img/lib/azure2/analytics/Power_BI_Embedded.svg;" vertex="1" parent="1">
          <mxGeometry x="864.5" y="270" width="45" height="60" as="geometry" />
        </mxCell>
        <mxCell id="F0u6j7_8wjAT6tHYz7Na-45" value="BI &amp;amp; Reporting" style="text;html=1;align=center;verticalAlign=middle;whiteSpace=wrap;rounded=0;" vertex="1" parent="1">
          <mxGeometry x="850" y="332.85" width="90" height="30" as="geometry" />
        </mxCell>
        <mxCell id="F0u6j7_8wjAT6tHYz7Na-46" value="" style="sketch=0;points=[[0,0,0],[0.25,0,0],[0.5,0,0],[0.75,0,0],[1,0,0],[0,1,0],[0.25,1,0],[0.5,1,0],[0.75,1,0],[1,1,0],[0,0.25,0],[0,0.5,0],[0,0.75,0],[1,0.25,0],[1,0.5,0],[1,0.75,0]];outlineConnect=0;fontColor=#232F3E;fillColor=#01A88D;strokeColor=#ffffff;dashed=0;verticalLabelPosition=bottom;verticalAlign=top;align=center;html=1;fontSize=12;fontStyle=0;aspect=fixed;shape=mxgraph.aws4.resourceIcon;resIcon=mxgraph.aws4.neuron_ml_sdk;" vertex="1" parent="1">
          <mxGeometry x="860.5" y="400" width="69" height="69" as="geometry" />
        </mxCell>
        <mxCell id="F0u6j7_8wjAT6tHYz7Na-47" value="Machine Learning" style="text;html=1;align=center;verticalAlign=middle;whiteSpace=wrap;rounded=0;" vertex="1" parent="1">
          <mxGeometry x="850" y="480" width="90" height="30" as="geometry" />
        </mxCell>
        <mxCell id="F0u6j7_8wjAT6tHYz7Na-48" value="" style="shadow=0;dashed=0;html=1;strokeColor=none;fillColor=#EF8F21;labelPosition=center;verticalLabelPosition=bottom;verticalAlign=top;align=center;outlineConnect=0;shape=mxgraph.veeam.reporting;" vertex="1" parent="1">
          <mxGeometry x="872.6" y="540" width="44.8" height="44.8" as="geometry" />
        </mxCell>
        <mxCell id="F0u6j7_8wjAT6tHYz7Na-49" value="SQL Queries" style="text;html=1;align=center;verticalAlign=middle;whiteSpace=wrap;rounded=0;" vertex="1" parent="1">
          <mxGeometry x="850" y="590" width="90" height="30" as="geometry" />
        </mxCell>
        <mxCell id="F0u6j7_8wjAT6tHYz7Na-50" value="" style="image;aspect=fixed;html=1;points=[];align=center;fontSize=12;image=img/lib/azure2/databases/Azure_Database_PostgreSQL_Server.svg;" vertex="1" parent="1">
          <mxGeometry x="310" y="132.67000000000002" width="28" height="37.33" as="geometry" />
        </mxCell>
        <mxCell id="F0u6j7_8wjAT6tHYz7Na-51" value="" style="rounded=0;whiteSpace=wrap;html=1;" vertex="1" parent="1">
          <mxGeometry x="310" y="730" width="480" height="60" as="geometry" />
        </mxCell>
        <mxCell id="F0u6j7_8wjAT6tHYz7Na-54" value="" style="image;sketch=0;aspect=fixed;html=1;points=[];align=center;fontSize=12;image=img/lib/mscae/Docker.svg;" vertex="1" parent="1">
          <mxGeometry x="313.41" y="170" width="36.59" height="30" as="geometry" />
        </mxCell>
        <mxCell id="F0u6j7_8wjAT6tHYz7Na-55" value="" style="shape=image;verticalLabelPosition=bottom;labelBackgroundColor=default;verticalAlign=top;aspect=fixed;imageAspect=0;image=data:image/png,iVBORw0KGgoAAAANSUhEUgAAApIAAAEUCAIAAAAX60FpAAAgAElEQVR4Ae2dT2hU5/7/Q3HxvYviXVxX3dhdF70bbRehULvqxo2lpQpSpZsiP8WdpWovFKRouqhFrih8S20JSPXSYAxcFWIa4UqykCCX8HV6E8xcGEckIU3GgEYzM7+efCaffOZ5nnPOc/7O+fOWw/jMycz5855zzuu8P5/P85y+Nv5BASgABaAAFIAC2VZg+ekKTX3Z3k5sHRSAAlAACkABKNAGtnEQQAEoAAWgABTIjQLAdm5+KmwoFIACUAAKQAFgG8cAFIACUAAKQIHcKOCK7ednT9G0fGD38oHdz8+eolee//zsqZe3rhun5vxVmlrPZnOjBDY05wpU64tDtYWc7wQ2HwpAASjgo4AZ2w6qd2ynqdb/utLgP3k05Ldq/a87b9fxT6/tY3uVmwDCf3P+auvZLGDv86Phz5oCRyYbfRPTfRPTW6ceLTVWtL9jBhSAAlCgIAoYsN16NkugjfdVYb/k+vKO7fSW18iMZ3MvuV4Q7bEbMSlwZLKxdeoRYbtvYhqeOyZdsRgoAAWyqIAB2+12m9w2QzT9BoNcN/TSuBPUX966TjYdNiuLh1jC26QwG9hOWG8sHgpAgR4rYMZ269lsz8ntca/gCvWNNDzl3YnlPRYYq09SAZ3ZwHaSemPZUAAK9F4BM7Y723VsLwHSg6BZ+5N057RtFG9nkPdecmxBTAoYmQ1sx6QuFgMFoEBGFfDC9lJjJcue2/6OgVnOAXZQPKPHo/VmuTF769Qj5LatVcQHoQAUyJ8CXtimvSkGuSXjZYyda9pf3rqOCva8HL9DtQVZg8bFaFRJDmzn5XfEdkIBKBBCAX9sOzDLYbRcctqjzUbcaWykxl/euh5CSnwlHQWGaguS00obbjudXwFrgQJQoFcK+GObtqx4ntvI8k2KbyAcFrxXh6ZxvR4+m/gNbBt1w0woAAUKo4AttrPQK8wI2uRmEsIpHf787Knm/NXC/Oo53ZGh2sKf//u7Yq+Vt8B2Tn9cbDYUgAKWCgTAdgnJTfcE4LflwZTox2yYjdx2oj8BFg4FoEAWFAiG7Xa77QxOvj6oWXI2N8tL7kTR1wdpR/w8tSPYktmE7Wp9MbUNw4qgABSAAikrEBjbpfXcys0E8xv1a0kfsr75bCVODmwn/Ytg+VAACvRQgTDYhueWCHf4DfOd2CFcrS+69fVSaM1vge3Efg0sGApAgd4rEBLbILckNz8HBZVr8R7RQX02kRvYjvdXwNKgABTIlALhsQ1yK+QmeC/v2A54x3KIh2N238Q0sB2L/lgIFIAC2VQgErZBbp3c0nmjZi30QR+a2cB2aM3xRSgABXKhQFRsg9xGcgPeUY7+KMzum5jG81ujiI/vQgEokHEFYsA2yO1BbipYQ7W5/WkQkdlbpx4B2/Zq45NQAArkToF4sA1yu5GbE97LB3YjZu57ekRkNvXbBrZ9dcYHoAAUyK8CsWEb5PYgN/1pecd22G6PU2WpsRK0rxd3+uLGOw/qwLaHyPgTFIACeVcgTmyD3Dbkhu02njPV+qLveOPMZo/G1qlHxuVjJhSAAlCgGArEjG2Q24bctf7XYbvl+RNiTBUjubdOPQK2pbBoQwEoUDwF4sc2yO1Lbkp4g9x0OsXlsymx/c6DevHOUuwRFIACUIAVSATbILcluZ+fPcW/RDkbMTKb/DewXc4DCXsNBcqjQFLYbrfbL29d5+7LNhgr4Weoe1h5jjZlT6v1xXce1I3h7nAzt049ArYVkfEWCkCBgimQILaJ3GV+yqfljcjygd0FO6psdieufLYCeGDbRnx8BgpAgfwqkCy2W83Vl7eug9ze/C6n547XZzO8j0w28ns2YsuhABSAAr4KJIttWj3I7Y1t+mt5PPdSYyUhZvdNTAPbvuc8PgAFoECuFUgD2+S5kef2hndJPHeizAa2c30xwsZDAShgo0Aa2KbtQIWaN7bptqbYteXE7OhDoXFIXG/Abduc9vgMFIAC+VUgPWy32+3m/FXHU+7Y7guw0n6AHtddyNHLU2B238T0UG0hv2cjthwKQAEo4KtAqthGrzCb25FCkjsdZgPbvic8PgAFoEDeFUgb2x3PfWA3PLcHwpcP7H5+9lSRPHdyNWgyTr516hHcdt4vSdh+KAAFvBXoAbbb7Xbr2Swq1DywXet/vX1sb2HInQ6zaXBTYNv7hMdfoQAUyLsCvcE2eW6Q243cnaryY3vbx/bm3XMfmWxIQ5xoe+vUo2p9Me/nJLYfCkABKOChQM+wDXK7MZvnt9exnWvPnZrPprsBYNvjVMefoAAUKIYCvcQ2yM2E1hvScOeU3O88qCfa10s37sB2Ma5K2AsoAAU8FOgxtinPvYwKtf7XdXJThjunnjt9ZlNue6mx4nG4409QAApAgbwr0Htso0LNCGxK/Dsjnq6HyqlCrTl/NRcHXE+Y3TcxjeeI5OLwwEZCASgQRYFMYBue25XcAtt5qS1PswZNiZMD21GuBfguFIACuVAgK9gGud3IzW6bG1n23D1kNtx2Lq442EgoAAUiKpAhbIPcRnLLOHnGyd1bZgPbEa8F+DoUgAK5UCBb2Aa5FXLLenJmNjWy5rmPTDZSrhtXIuR4/FcurjjYSCgABSIqkDlsg9wKuWU9eWbJfWSy8ef//q5zNOU5ePxXxMsBvg4FoED2FcgitjuqHduLccsJ4Qqt+e3zs6ey4Lkzwmw8RyT7lxtsIRSAAtEVyC62lxor6M9N2DamtxneL29dj34chF5CFmLj5OnxHJHQPyK+CAWgQI4UyC62OyKW3nN7pLeZ3L0at3yottDzfDbH4YHtHF13sKlQAAqEViDz2G63S+65bbDdPrY3fc89VFtgZGahgZFNQ18F8EUoAAVypEAOsN0uPbk9qtLYcLeP7U0zz501ZtPIpnj8V44uPdhUKAAFwimQD2wjzy3x7NFOx3NnKjbORv+dB3UMSB7uKoBvQQEokCMF8oFtErTM0XIPVCt/SprcQ7WFLPT1YlpzAyOb5ui6g02FAlAgtAJ5wna73X5+9lQ5e4UpbPZ4+/zsqeTInVlmb516BGyHvgrgi1AACuRIgZxhu7R5bu8+YDrFkyB3NmPj7LYx1kqOrjvYVCgABUIrkD9sl9Nz62D2nRMvuTPObIxsGvoSgC9CASiQLwVyie0Skjuo2yaox0Xuan2RTW1mG0O1hXyde9haKAAFoEAIBfKK7bJFy8NhO5b+3Nn32XQnAWyHOP/xFSgABXKnQI6xXR7PbTniilvYPIrnzguz+yam0Wk7d1cfbDAUgAIhFMg3tstDbjckW84PR+4cMXvr1CN02g5x/uMrUAAK5E6B3GO7JOQOHSRnrgcld46Y3Tcxjd5fubv0YIOhABQIp0ARsF0GcjN9ozSenz1leZRQDVp2HhPiWwcHbFv+svgYFIACeVegINguPLmju23ivQ25q/XFHAGbRiNHp+28X4mw/VAAClgqUBxsF5vcUUy28l1vcueir5divvHITsuzHR+DAlCgAAoUCtsFJreC3ohv3chdrS9mc7xxhdPK2z//93f0/irAxQi7AAWggI0CRcN2UckdkdP613Vy5y42zvDGk7ZtTnV8BgpAgWIoUEBst5qrL29d15844vR+Xp9q/a/nbtK5G32OJHe1vvjOgzqDMF8N9P4qxsUIewEFoICNAgXENu22JDfT+uqxvxKw84XwuOrRdNITuXPNbPT+sjnP8RkoAAUKo0Bhsc2ee3nH9qOHT+4/N9Y/UvvTjXb/SK1/pLb/3NjRwydr/a8z0TPrv50tPLBbJ25cc56fPfXOg3q+SseVYAB6fxXmeoQdgQJQwFeBwmKb9vzlrev7z4396Ubbbdp/buzqsb9mHN6JYrt9bO/l779RQJivt+j95Xue4wNQAAoURoGCY/udB3U3YMv5WYZ30m6bXPv+c2M5Ndzo/VWYixF2BApAARsFioztI5MNyWbfNofNsxYwjyse7rGcgTPnc4ptPETE5jzHZ6AAFCiMAoXFdlBmE9T7R2oUM88UuT1wG9efch0nL8zZiB2BAlAACvgqUExsh2M22/Gjh09mJ9uddGK7fWzv8oHd+cU26tF8T3J8AApAgSIpUEBsR2Q2wXv/uTGqM++t7U4nsZ3fqrStU49Qj1ak6xH2BQpAAV8FiobtWJidqYB5Cm67fWxvfnPbGNbU9yTHB6AAFCiSAoXCdozM7pD7SrXnqe64stfey8lvJXm1vlikExL7kkUFXiy0XyxkccOwTaVUoDjYjp3ZnOruLbm9cRvLX5cP7M5XR23e2q1Tj0p52mKnU1Wg9fRe6+m9VFeJlUEBdwUKgu3kmE3w7hW5ESFnQhsbqEdzP7Xxl9gUaD2915y/GtvisCAoEE2BImA7aWb3kNzpYPu18ctGKGZ/JurRop3++LaVAs35q2u101YfxYegQPIK5B7b6TC7V+SOJQbuvZD8dv3qm5hGPVryl4iyr4GebvBy5tOyC4H9z4wC+cZ2mszuCbm9iRvLX18bv4zx0TJzPmJDsqjA2tzn7ZF3s7hl2KZSKpBjbA/VFgilKb+mludOIUJ++ftv8stsJLZLeclKe6cdtz3zqYNtFJOnrT3WZ1Ygr9juFbPp0Z/pjMSSNLbzW0DeNzGNgVbMJzTmxq1Aq7nqMPt//wfF5HFLi+WFVCCX2O4hs8nZ94/UUiB3LDFwj4Xkt682YRuJ7ZAnPb4WRIHWs9n2//5P+3//B8XkQWTDZxNUIH/Y7jmzidz7z40t79ie6NCnHsSN/qdch8cJ2xhoJcELAxa9ocDa44uEbVSlbUiC/3usQM6wnRFmE7kHzpxPjtyJRshzHR4nZiOx3eMrR2lW79B63W0jvV2a3zzrO5onbGeK2UTu5MrTovtptyUsH9id6+pxJLazflEp0PY5EfL1xHYnTr40VqCdw67kVYHcYDuDzE6U3G7QjT4/1yltGgFm69QjJLbzesnJ1XZzhBxx8lz9bgXf2Hxgu1pfJEZm8LX/SjX28rTkIuT5fdKXMmRbwc9L7F4WFHixIK02kdvx3/gHBXqqQA6wnVmfzfcQ8Sa5k3vGdmGYXcLE9lJjpacXijKuXLHaMNxlPAgyuc9Zx3aWfTZj+0832vEmuaNHwvUl5HoQU8VqlzBCPlRbALnTvIQqWW1iNr02keFO85fAujQFMo3t7PtsJneMPbmTiJAXidl9E9Ml7Po1VFso4V5r16u0ZpjC45vkHnkXofK0fgmsx6BAdrGdI2YTvOPqya0b5YhzCsbsEkbIW83VI5MNYNtwAUtglofP7iI3nsCdgPhYpI0CGcV27phN5D56+GT0ntwRIa18feDMeSXCnPe3JYyQLzVW+kdqJdxxm0tYvJ9xAuCix9cmp6nrdvfr2uOLztCn+AcF0lUgi9jOKbOJ3BGryuONkBemBo1vNbZOPSqh6azWF7cMzn41UU/34lCitbWaq82lsc2RVbrx7AXvkXedQU/xlJESHSy939XMYXupscIJ4zw2IobKFa8c5W0B+mczrblRwgh5u90eqi1sGZzdcxNdj2K+Yraaq62n99Zqp+0dthnhI++uzX3uOHXwO+afCIszKJAtbOelbtz7fiJKVXkUTvN3lw/sLiSz+yamyxko3nNzdsugM5Uw0mC4aIWY9WKh/WKh9Wy29fRec2msOX91rXa68zhOe2Nt88mRd9vrCF97fLE5f7X19J6TKae1I5we4ofDV0wKZAjbeffZzPLQVeWxRMgLMHYpe2ulsXXqUQk7QZHVJmwfmWyYzmLM81LAsdQE7HVaO8baOntt9tbW/H4586nD76Ux56GfMOJevxL+FkCBrGC7Wl9850GdyZf3RrgBWNguh25Q0fjWqUcK8IrxtoTQqtYX+0dqxGx6LWe8IcAlzfRRKhxz+L0+kfMmzx0nwkfe3eT0usnm9Zo2CvOgQEgFMoFty9j4q9+tWk5ZoH7QUHl0q128onHlbqNsIWKH2aPzROvXxi8zvEHukFc7l6+1ns06A6KFtuBIbLsIi9kJKdB7bHswmyHd9+XvoSdeyKvfraaJ80C1acs7tod22O1jewuczGZyl6cYbamxUq0vfjVRZ07rjT03ZzFuWrzXRKeYfP5qUHiv1U5j6JV4fwgszVeBHmNbZzZRNjSkbb7IIE+a4oEMd2hsFzswTtgu9iO/iNNDtYWvJupHJhvssP/o9NU3Mf3Kt/fpdcvgrPTcWwZn+0fnj0w2vpqo0xhqZYtG+F7dwnzgxcLa3Oc2Ke2XM58C2GEUxnciK9BjbMt89qvfrdpAN97PJIpwqk2r9b/uO4WLkC8f2F34wDhju8DFaBLbe27OymT2K9/e14Pk0nzvuTl7ZLJB2C6wRJEvdMEWYHyIiGT52tznGGglmKb4dHwK9Azbsm68J8DW8U8Ij9eCW46bFsJqF7hinAPjzOxSFaO1mqtDtYUjkw0GNsObgU2DpsFex3clVJfkdOZ2qRh3eo7hHxTonQI9w/Y7D+opxMN1NlvOiQvhNp3BQlhtMtlFrRjXsV1OPg3VFqTzfm38MvH7q4k6jHXS10zHTBuL1PAckaSlx/L9FOgBtpcaK0cmGxlx2L4Uj85v385ggaz25e+/eW38ckmA3TcxvXXqUXmK0fSzFR3AdE1Sm+N0ttYMtxM/xz8o0FMFeoDt/ivVvDBbQj0Kv91q05Z3bLe32lQuTiRT/GiB35ZzEHJ5TZDDrWB8U6lMCm11lPKRd4ua0i7qfqVwkKS/ilSx7TzIKJ/MVvgdNP/t0RnMEttlKBfXbz5KbrXpckCP/6KsdjmTBelfFmmN9HwRabhhtXv1W2C9UoFUsd1/pSr5l+t2UPPtZrh9I+SXv/+mqAOM65zW5wBU7Xab+nDDassrV0rtFwsyw13gHl9w2ykdUXGsJj1sF4nZ8obDkt9Gw+1ttcsZFZfkLlUBucfpjAd3eoiT9J82u3EXN0KetIZYfrwKpITtojKb+W0Dbzbcyzu2U09uN6vNHbLLU3omac1tWG062ym7hDFN4732WS7NGTptvTDN6RJW3H9w2zn6bdPA9h8DOTHeCt/wGEJ1/7mxWv/rV4/99eqxv9b6X3ez2qXq3MWEVhpbpx7BavN1hDpf4CaGBUmz4QTG17HtPE4b/6BABhRIHNulYjbflBjN98cffrbrvQ94csz3gd3ScJetc5eCavm2zJ2+jJcFGgfN+CfMTFQBx4ZSB248eTNRobFwawWSxfbgr8WpQWMk2zckvBVmE7w//vAzwjaALZld7BHIrc/Nrg9m/8EhrebqUmOlUpmpVGYKFhhwuoEhsd11POJNLxVIENuDv+ayf7Y9lS0/+ep3q698e59NttI4evgkDZ9S8jS2xDbC4/olIePDoi01Vu6M3738/Tc83Rm/m/Ft1kV2m+NUpY286/ZXzIcCKSuQFLb/ePKgJdXK8DEF1cpbSSy0t049SvkcwOoiKtBqrirMJnjfGb9bjEKnl7euO+TGPyiQDQWSwnbhS8cD3W0YI+QMb6BaKlCw+Go2TvNkt6JSmWGTrTQqlZlk153K0pvzVzHQSipKYyVWCiSC7XKWoXmAnAltbEholbyN8LjVWZuxDxmtNhvujG1smM1pPb2HMvIwwuE7ySgQP7aHagseACvnnzzc9tHDJ0uOat59VI8nc44nvlQPbA9fu5H46pNfQevZbIHHR0tev7TXQHWRBX6NH9t5fExIcjcTr3x7f9vtg9tuHzT67F3vffDa+OU///d31KOB2Wlf22Jan1tiu0huu/1ioRhJ+ph+86wvZt/Xo0Gn/efG9n09uv/cmHH66Kep/efGlNePfpoKN+25OfvRT1PK656bs/ZTzNhGeJzvAAjYW/5vH01GchOz//zf32kqM7yR0s76tdB9+5YaKzKlPXDmPL/Fz+ouG/6SlAJvHRqhaeeJsShT/8DkzhNjymv/wKQ+vX3+vnn6seLM/7HiMfVfqfJf+69U1Wmk1i+n0fn+0fk4sY3qcWK2AmxJ7r5f3ifb3ffL+wqzSwtv9NJO6uqV1nJbzVVjVVox6tHSUhHriU0BZrbC77cOjew8MUavHji34TSTm2ndPzDJ7U6DmE3YdoE3MVtFNcN7pOb8SWJ7vR0ntlE93vfl79tuH2ROK42+X96X07bbBxnVemPr1KOSmG8MtR3b5aqnC6pUZoav3bj8/TfD124MX7tBzEZsuae/SUlXzrRmQnPDjdaEat1b0xyGNDfePn+fOC1fVWzbAfvtHyuEbW50KK7R2uH36Hz/SC02bKMS7bXxywqnlbeS2Z32xLQObGVOseENZhfpykoDpS01VkDrIv2sudsXxjZ7a+mzAyGcnTcDmxsKuVVm61ZbM9xstQ3AJsOdtNsucyXaK9/eVwitv912+6CObW/DLfldSPMNZufugogNhgLZV4CxLWlt6bPpY8RmN6utk1tlNqe6ObetMZvy2UxuQ5zcyOwY3XZpxx53S2Pr2NaZbW+4FX5zj6lcN8Ds7F/+sIVQII8KMLbZbXMjkNWWMXNGNTcUt23Ibevw7q5NY2aT21Y9N2W19dx2XCVp5bTavlFxhrfRahO27Q23hHeu+4yhBi2Pl0JsMxTIiwKMbaPb1smtJLa9ac3Y9slqy8Q2W21urPObsW1rtSnbHQu2S2i1baLizOwt/7fP1WqvF6m5lZQrnDa+zV3wHMzOy7UP2wkFcqoAY5tNtmy4RcvlfE5puyHcymrr6e1ut032+qOfplz5bYyTx1KSVjar7VErLlHNbQ+rHdFwS5Bnn99bpx79+b+/Izae00shNhsK5EUBxnYgt614bib3vq9HpcNW2sxvc3qbc9smYLvGxt3C43FVkpfq6ZxBTTaR2xfbHn24JZjt21krPidgg9l5uephO6FArhVgbLPJ5sA4N6S31tvMbLeqNKY1p7S50eG3brW7I+RKSZohse0G7+hB8vL01Q5qstlte0fIYzTcOtd7bsEZ2GB2rq+D2HgokCMFGNuK23ZjtpvPdmM2GW6d3AbDzW5bYzYHxgMAO5bc9lBtoQwR8nAm295qE7mjZLh1YOtz0kQ4rUtuA2LjObrqYVOhQK4VIGyT1VbIzf5bd9hyzr6vR5nZ3FDC4wq8XZlN9eRakJzcNiW2GeFqbVoSue0jk43CY9u+XJzttWzYWG3+jPSmknlJtGOnuI5q3mwwO9cXQWw8FMiXAorbJh67WW2iMr9yg+Pk3rTm2Dg3uvgdu9uO2G+7Wl8sPLNDB8aZ3Ixkm0bozmAMyNANgi6/9k1MeyTI+WMeqOYtAbPzdcnD1kKBvCvA2GZvzczmhvTWsm0MmBur0vyD5DK9zfwWtptNtmttmtFtR8ltF7sYLUpgPByzO1y3GO6UiZj9xpHJRt4vAdh+KAAF8qUAY1tGyL2BbaS10WfLmUxu2bB020pJmgyP77k523nrMix5+DHJC1yMFjEwHgXbPTTcsd8EgNn5uthha6FAMRRgbCtuWye3PoedNwfJ3XLbjGqv8DhVomn1aNJep9dvu8DFaNED44Rtm35fxsh50rVpsePZuEAwuxhXQOwFFMidAoxt6ba9M9zSbfsCmw03k1s2LN32Rz9NcQ05NzY9tzE8HrHf9pHJBj1bumCvcTHbd2Q0I7B5Zpq1aUboRpwJZufuSocNhgKFUYCw7VZJzn6aGgxsOZ9mUko7pNvWByTXPDfltg3M9n7edujcdiGL0WJkdkRs5zpUDmYX5vKHHYECeVSA3bZ02BwP54bOaSa0rCdnby0bZK8pPO4VJDdVolFWW8bJZXszq60/RCRKv+3iRchjKUDjlPaW/9sXOkLOhjunoXIwO4+XOWwzFCiSAoxtPUguUc2Zb2WmZDa1jZXkCrPN8NY9t6gkN9CafXbsz9suWHft2Jkd0WozuXMXKgezi3Ttw75AgZwqwNiWYPZGuAyV2+S2/d22UozmEiGXfcD23JztBMw5sa0b7tD9tosUIU+C2XFhO1+hcjA7p9c4bDYUKJgCjG1qSHi7GWuer/CbES4j5NTmMjQvn6103dastlcZeYxjkg/VFgpThpYQs6NHyNlw5yVUDmYX7MKH3YEC+VVAobX02cbENkfFuUFgprc6sHkOk1s2NivJJbM1t6332+5Ybc/weP96MXngftuFebp2QsyOy2ozufsyPwDLOw/q+T3DseVQAAoUTAFft+0Gb/bckt9u8GZU+7ttMtkauWWEfLPrl0xvc7S8e9yVwNguzCgrsoIsxnaMVpvInfFQOXx2wS552B0okHcFGNtKeNyG1pLc3HYLlTO5Nx0216Bxw72YnLGtMttI69H5/o0pGLar9cViRMjj7eslqb/pkn95P652ZskNn533Cxy2HwoUT4Hjf7+1/9yY/XTi0r/ow/RFemt8PTQ8uv/c2IlL/6KG8fXQ8GjSUzBsFyNCnhyz44+Qb7A/g0luMLt41zvsERQogAKtZ7Nd09N7re6puTTWenqvuTSmTvNXm6Zp7fFF81Q77cyvnVanuc/XTNPLmU/X5j5/OfOpOlV2O3Mqu/Xp+fROZXrx778Ew3YBIuRxjTcuHbZsx+WwDcvJUpI7s8xeaqxU64s0LTVWWs3VAlyG0twFErBSmaGpWl9caqykuQHpr2upscL7W6nM4LBJ/yeId40dZj+95zS6gU20dmX20piDbXpd5/fa44sS5JvwJmATs43kJpZ3w5uxHQjez6d3vqzslvAOhu28d/1KrgyNyB17YluBd0Z6clsyu9VcHb52Y+DMeZ7ujN+N9/ykpS01Vu6M3x04c/7o4ZMff/iZMh09fPLSDz/fGb9brS8GXftSY2X42o1LP/wcbgq0v3fG7w5fu2E5hdsdt91vNVcrlZlLP/xMAu567wM5ffzhZwNnzg9fuxFCQH2NlcqMso82t1byW3fG79p8RV+1nKMcM8r+Hj18cuDM+Tvjd6PfstAhpOxyaCWVgySEFNX6YgoHc7vdrtYXlb32fks3TPI3ChTkFHUAACAASURBVN3etNomcputdjetJaqb81c3aa3Y7oBum2htz2wd2ATvANguwOBo0hYn0VYoG/vbLCS533lQt7yWDV+78eYbu+T08YefWX7X8oxdaqxc+uHnjz/8TK7Frb3rvQ/oWmy58Ha7XanM7HrvA7cF+s4/evik5bpazdWjh0/6LlB+gHanUpmxXIXbx+6M3z16+KTNbsayxks//Cz34s03dg2cOe+2bTxffiviUUQctTxmPv7ws0s//BzloDUeQja7zPtODbq1Un6mjz/8LOgdgH5WKj+H29ujh08Gulu6M37XbVHG+bve++DjDz8bvnYj0FoUlTpacZDcHtvSZwu3Tcxmiqv8ZmwbDffc507wXBjuEG6byB3ebef9AduJprTpJiB2TusL7C25LX12u91eaqwYr4zD124Yz7QQMyuVGeMqjBcFnrnrvQ+OHj5pSTvjNZcX5dtIFNu09l3vfRDI00udlxorA2fOKyTw3ald730Q5UeUAOZ1XfrhZ7lhelt+Kwq2K5WZoLdHb76xy/6A0bfc7RAK+qsZb+xCSBGUpvwbJY1tXtHAmfNR7pPa7bZHkNxstd2ZTcBWaU2em5ltzG13A5vhzeSOkt4O4LZzndhOOjweyzjkOqSNc3pFbnuf3W63B86c5/NQNkJcaPRLIflgI7NltNMDSJbgcbvm0h55LJ8+kAK233xjVwjLRfdVbgCz0XDgzPlwrkgCmA8M35sP+a3Qh9Cd8btuP5ncZd4q2fDdQuNR6hGwCboXRpccdCHtdjs0tj/+8LNAv3joFVkGYNwE38Q2eW57w22Kk8vcNrUNCDfyW7PaMkJujpNTVZpWm6aHygNgO9eJ7SRC4soyjYhNaGZPCsvtb4EV2inXSktkepyW+m0BB8ArlRmqR6MiI0quK0Fge99QrS9yYl5pyJ2iVKjyAcoHe+8F/1XxUhQtdMsFUhJaQsXXrfKKqLHUWNGZTTnsO+N3WcNqfZGSqYqAtOqgK6VVSwDLXdj13gceIRD5rRCscsMn1z3wLlcqM3fG7xozL95bqCjMbz3OBXsBq/VFebyxbiGkkDSls0Y/bo1zgp62ckVEYrfjmU5SuYO73vuABQzR2HTbGrOjuG01yW2kNVeiBXLbXEnezWwGdsggea4T2ylY7eS6frmBP01yB/LZ7XZbIoFsipwT4lqjnLr6pdA75MglV5Q/C5oOVNZOVpWvMqF9mFysgm3f3CfFt/nybX8jQiuVFGQGsyxkqhRrpYeXw2GMV80C8l54hA34WxRdsL+DpP3Vb1P0NKqyv1RQqWzk0cMng65aOVZ5Z998Y5elgK3maoyxK0nT6GeiPIaVtlzRm2/s8rgnoy8qQilLC/R2syQtXCW5qQ+YymwlTq7kttlqC3hTeJx9Nje6ouVaHzAmd5hK8lwnthVbnNBbN74mNz81cge6VCmnKxFICfHZ+wzj6WpchfGTykwy4srMEG8V9+N902CzfAXbNtF1eZkLdP1VNt4yV91qrir3CpT0VWjnu7MSwHQXJUnmxkX5rUA7S9ujHH4e9wfK9uv1E0FNp/yZ9P31vT9TwtpUmcGKhZBCnjshvq7o4/FWrujNN3bZnCPy7sRjyb5/8nDb5g5gHB6XSe4NeHNsXCU3u22F2Wy4RTFagNx2t+Emnx3Sbef3YZ3pWO2ku365sT8FcrMJ8z1b9Eq0Xe99QF9XKtQiXi+UKwJVDNnwo9VctfmY755K8vXEbStR30B6SgS++cauQLdQyu9o6RelnnLtH3/4mc5FY9Zc+Vag+0jllijoNisZ8aCBDQXbw9duyMiTL89azVVZw0GZF2BbHlF6e9Nta0FyM7Zp3BWG9wawZQG5ymzZE8yjJE24bdvcdrfhjuS281uPlkIBefoRcknxRMkdiNntdlteXhUkKI4nEC2UM1NSky5h5EIGzpynPqnD125wjjaJ0TOUDbBxEsouKG8VtPi6bSVwas8SZUX2vpM3OOLvKI8QutuQYKNfUz829G/x9vg2lOXbGFxlmRK0QamvrJ1y58xd35i/3HG6CZb6B7pdo52St7x02ySHmnFrB70OKEGCngXJNWyHyG37u2223ZLfHCfv9tzmSnKX3DYNmqaT27YkLadDkadjtXuL7b5f3k+I3EHPVeUKpVxTFN8QAhjyYiovZ/IiKNtUHvzxh59x5VEsVpvCxTLrGTu2g5ak2aNIscu+9wdSc6dGt7mq3LLYr5oWJX84PgYkiugXVGLRyrcCuW0Jqjff2KUsWdlB41u5dl9/rCxBOSnoUJH3Acrdrfy68l26m5FaKaeY/K5bW1FDltC7tSkb4rZAt/nKiihO4FaVpnREjKEkjYBtym27Gm53tx24G5iJ2WnntvP7jO2SYLvvl/dj7xUWlNl6dbd+fZRXHI+rlduFQM7X86wS2G7to4dPRkcsjQDF2E4iSO62/cb5gfxftb6oBF2lqjbtiOCXCOQcih6nUVSV3wrKKuWo862N0kVQCKQf2PpXeI5EL++UnEm1acbTTdKd91ruDs/k1fk2lH0xHlH6zKC3d7rb1pfpMSfovaCy1x5B8qTctvTZnNvujpBTetvstmXXr+7cNlttmd62ctv5fYJI0iOQU3VbrxLbMlRO5I5r9FPjRUQ5N5S3yuWAaouWGivKJJkhr9rK0izf0pimH3/4GUPU41pAf+JLp+UqjB9THGf0WwEldu27F/wBy4Iy3otMYZvdNvl4WZFE0WNGbIzYDvFjKcd2aGxLpy73yNhTWVkpb3busG1/btJRffTwyRDXHz7Cu/pta0FyGqLcDG93t81xcrXTNofHlao0k9sOl9vmOHngSvIjk42cBskLn9jWyd0X+YkjIc4ZxYHRNZcGuFZelXNYz2LK08+yXa0v0pjVl374mbqcHj18kscnV9bom020WanEdiz3ASGwHWi4N94p5ZcK4aLkvht5w+syNiSuJLaNI8DwB5Rv5T1IrhdvSqLrf5XuM0ZsU2W7coZSUkl5lRtg/Fn1mcptB99oujVoYyIOJUubsVlJrgXJzcCWBeTdI5tSJZp87SI3Yzui23bJbbPVlo3n0zut3Dbq0bz7jGXEbTPCo6S6QzBbj3C6nZn6/OiGW79edE7d9aJxIvqlH35W4M3exe3rHvPTyW0rQ15wvJR3JJDnk7vDi7LvOiy/LgkaItMhv85UpuVT4lzGY7iPWRRWKfcZQe9UlDuqQCkJpeBfYbMCNtn5TaqknCNRpFBi16Q/da/wfpUHgGVb7h3dYvJdNR3byg+tHAyWazF+bDNITtjuhrc/ubVKcnNum5hNPtvCbfvnthneophcAbbto0SWGiv5HR8tnSA58zI7jW23D4YImIdjtnJZ1NnsPSfEjTydq/aWq9VclddB5eppPPO9Z8pdTsJt60EIBR7EM3sF5O7I635Qu6zE2IMyTLnDU4BEG6nkfenOQG5z0ISuLl2gmza5ar6NkHp6t+XuKIeKvmH0u8uv6DV0cnuCSqFjO9wh5L3L9FcF25zv4O8qPeuCpnt4OXpj022bguRmbHOEPKjbdjPcfnHyrlFWZG5bMJsj5DKxbeW281uP1vfl7+mUpGWH1sqWBLLd4Zit9EQiA+dWkirnM8tDXPrp6hPo6UzyYqdcPfXT3neOxHb0mwDK7EoTbLyVUZAZlLi8U8bl2Fy+q/VFuZHhCozl/ZPRYLWaq/KKT0eUdGYRWUULtCS3ghYdoqyqW0NhsLJe5a/UI0uKLC04rUIeyRGlCPF1t93U58sf0e0clwdDoN9FX52co7rt7kdum7Et4+Sa23bNbfNYaUqQnJndXZXG9WjmIdJM8A7ptvNbj0b5eO/4dix/VWCZqbfbbh/0hffWqUdDtQV53Nu35cnJZURuvT95vnK6GinlsQ3yYkfF4d7UUcb0MJo8j9Xpf5LYjn4TYIltulnhIDnd94QLlctLPy3HW0Z6drJkJ11kdQula6XMkT+9Edv0efkxvsOjRgjY6L7W9yGklcqM0isphNX2DpIb91TWVxppJ3+7EFLIEzbE15Vf0+OtXJFxR+i7eh1iOP8gt2QT2ya3be4Aprhtd8+9mdtmn61EyLmSvLvHtm0leSxuO7/1aITtpA131hLbxpuGbbcPOttpqlbbOvWI/upNPnlWcFu/GlpSROnD7XFW87q4oZtFul2gZ2nTnQGltKlOTX8Mhh6C5oXbNFLIbXvcxyg8CySd3DvlcslEpCFruH8tPbZEATZ92PK3litVguQe2Nb7EzK8w8HGeNjIUXpolyn/qh8zdIyFIIq8xTQGZowbRjurHwY0UnoUKRSa0vBElq9KqED5ZZW3yoqMd3h0KilHl/3YQcoa+S2ViyuvzfWh0J7MjVLDeWVUz1915guTvclmORraevvh9AXnKdrKxPbaBdVqSHzm084cC0jLGvIX//7Li3//xb8kLb/1aITtwV+rQ7WFWFy1cSFGTGZ2JhGaLHiH5b+8T1u77fbBoFclBSGBzjdpGgLFez0uc2QBjaF4vtLpUUc+2+0bvXLbbh2lgv5wVKtsJDcL5dGIkoaUx4x32EN5/geHGcJhm4yvQgiPfVT+ROFr+yOEPymx7RaYUc4FWrXbbsoPu32G1643JE2VffR9G6iaT67I++ZSSkTbEPHGulKZeTI3Sq9P5kajTw+nLzyZG1VeH05fSG56MPXJw+kLyuuDqU9o8sd2fuvR+r78ffDXKl3pkiN3Lty25W3EttsH7aPlEl10sgW6GVd6Inmf2MrVh56n6XuV0T8QC7OV4VaMFkrZYN+3StxCt1lyCfqNi3Ecb/kVt/bwtRtBSRZxyBqJbW+3TTrrmxeCVbz7NEoP3wHoR4g+h8LpIWJRtFKFScZzRPn1aRvcghk9xLb3YckiU8Me2+12W+4U3XwrSzO+/SO0tu/r0X1fj5649C/v6ct/TJ249C+P1y//McV/pbZ8/ds///PlP6b49W///E+46auJuvwiveXXrybqcvojzv3VRF15PTLZODLZ8Md2TntsM7Pp96ZojNEuR5xpScS8fMye3IpXC0EO5VwNdC9PiV49+6hfdmmO/qBG44XAcqZyy2K8Flsuio9PWYjke31UYBCiIxZvXrW+SI+X9oYZxZOHr90IDTBao8S2t9umz+t7GgXbvMyBM+f1GwLl4KEHkBuju6yeb0PZfrdDRfmYR+BKCuh736NvnnLSKbvs/TbQGaqsyFdG5Xqib7k+58t/TL11aCTctPPE2FuHRrZ8MS5fd54Y2/LF+M4TYzTJNs80NvoHJneeGOsfmJTT2+fv9w9Mvn3+Pk2vfOs06FU2tgzOOh/4sdL1+mPFmbMx9V+pyskH2/ktIz8y2VB+5lZzNQnPXSS3zdFyX89N5b6cAR2+diNcnPbO+F1eyJ3xuyHGDKdqqYEz5+X4KhQnpyEjKOcdETbKsbTUWJFbHmLflQWS4eAUo9vFXX7rzvhd/vylH352M2fyKx7tpcYKlQKQkjReDb3SaNKVykyIX0dfI62FfnTLX1x+hR4SE8uWVOuLpKG+y5d++PnO+F36WSOua6mxwke492lieURVKjP8u4e4i6K7NF5CoIbNYcm/uLIi3xOQhOLt4eV4NIav3QjBbMndtw6NyLe+bSOeJaqpTZyWzKY5nVcmtGxsEJpR/faPFYlq2fbBdk4fs02xcf33TsJz58VGB9rOEHluXe305yw1VuiJ2vTqe6VIfwszvkaJKNnO+GbHsnlxPdQ1lo1JbiFF+lkHf60GwjY5bP4KQ5rg7Y1wBja5at1bM7zJZDOzudFFbmmvNXgzoQ3kHqn1X6kWENu6z5bnQOyeOxAO8/VhX88thc1Uu0jXpkwJi42BAtlRwN5t68C2RzVzmjDP/GZO6w0rt62Qe91t91+pxuC2c9f7a8/NWd+jisZQjJjS5q/ni8SBttY+z+2rOT4ABaAAFIhXgShum0BOJPb22WzKGdgMciOwaaYVuU2BcXLY8pXNt9Owcdv9V6o5qiT39tnKEVOtLzJ6ozQCgTB3Hwa5lcMGb6EAFMiIAuFK0iSwGcluM+UHlLZCcYlwJU6uhsc3itQ687UgORluct78KuHtEyTPEbNtfLZytC01VqI/Iix3JA6xwb5VoIqweAsFoAAUSFqBO+N3j//9lvd04tK/jv/9Fr9yQ86ktncXMuWv1FvMplOZ7Ehm2aaeZrLLGbW585gXtqv1xbxgO5DPVg6mKOQuXhm5Eerbbh88/tugohveQgEoAAVSUKBSmTlx6V/URZtej//91r6vRyOil0nMDKY5Hh24fbnLfbs9oMv01RuyYzf35/7bP/9D/bm54YPtXHTa7r/ijKkS+l9Ez23kXPFmgtyhDzB8EQpAgSgKBM1hc624ZdJaiX4rb2X0W7aVbtmukXCOgVMNWnc+W4a+N9vrCWwnje0yeWE7F522o/hseSSF9tzFI7TbHiHPLQ8YtKEAFEhBgVZzNRy2uXqc89Y21ePGcjPf7l5mZnsCm4vOuLGJbTm4ik7u0XkvbGf/2V8RfbY85sJ57pIEySXIkeeWhw3aUAAKJK2APbYZ1Wy4Fevs9pbqyySz6ZNcdyZ9NnXFlq9eztsd3sZysw68peGmAnLi9+h8/0gtx9iOkdl02IUjt0RaSdrIcyd9ncLyoQAUIAXCuW03h20TNmdUe5hsyWz/AVVcwuM+FeOS3N2e2wvbWe60HTuz6RBZaqwc/20wUH+wkqBa7iby3LikQgEokJoClm5bt9pKVNyN2YrVlp6bEa64bXorTXYIeHu5bYqTd9PaSXX7uu3MPrKz/0o10XErA5Fb8qw8bZA7tWsWVgQFyqxAOLdNQXL23G6xcd/5jG035y3JrWa4KTxuGg1NGQqNbbea3tYNd06xnZDPVk4Me3KXB9XKnoLcyjGDt1AACkRUoNVc/eNxnMo0fO2Gd+fsEH9VOnDzW+4VFrrB/ccODY9y27fnmNsHZB/uv/3zP4eGR71y20uNlQx22k7aZ9MxRyNaW5K7hFVpkt/Ic0e8TuHrUAAKkAKVygwBmCAqu2UHwirDkoZDcSOizXylH7be09p3DnfFVhry0dqW7Wp9sVKZ8cJ2BsdaSYfZ8hSyIbdkWDnbILc8ZtCGAlAgnAKWOWyuEueGb6zb9wPG1LWcycFw/xx2d89sPR6uRsKNaezReSeN3T0N1RZyhu30mW3puUvutulOBeQOd53Ct6AAFCAFwuWwlTI0wrNSiebBbE5dy4aktV56piawOXXNDQ3bXHpGXbQN2NZz2FyMJsjtj+2h2kJ2guSvfreaaA2a95nj7bmBbZDb+/jBX6EAFLBRIJDblsBmMLvVivMHuEqcS8x4jk5r7uXFDQOz6bkg3DlbYzaXmzGzueHw2w7YZLv9sT34a1ae/dVbZtt47nLGxvW9hue2uTbhM1AACugK2LttCWyOk0uHLdsS2LJN9tqb2QxyjpDLRgfherm41ks7vNterxvnUHlusP3qd6vV+qL+G6c/x8Nz6wAr5xzUlqd/WGKNUKAwCgRy25LNsi3ZrLQZ1TxfxsbZfzOt2WRzw99ta8xWxi7tstoebrsb2Hly29lhtrfnRpxc3qbAcxfmMoodgQKpKWDvtqXDVtoRO2pLikt4U5utNlHcFeHuSW5GuApv4yDkGrmHagtLjZW//fM/rqOk9XyItOwwWx64Rs8toYV23y/vg9zymEEbCkABXQGlc3alMpNE/2y9S7exd1noXtqHhkfpu7KXNrW5H5pNTzP6DPfSpv7ZHB6nxh9Qpq5irtjec3O2h0/tzCaz6cgDuW1uTUBu/TqFOVAACrTb7Wp9kftn2/AyBP/k4659u1bbfEB/+rVlZ+ugHzsy2aD+2Xtuzjq0pgFNRT15v8cTwHo4smmWmU1nnU5uG5KV7TMgN67RUAAK6AoEzWHHGwnXE9t6Vpvj4V6RcIsacnNfL+7cZUJy/+g8lZ51sN0NbLLdrm67h9jOSA2afrTJOQq5kd423pSA3PKYQRsKQIEoOWwldW1Zicac1vFsTGD7oNqir5eZ1h4FaN38Do/tXnXaHqot5OXIVsht5BZmgtx5OZ6xnVAgHQXs3bbs68XMJlpLGOtz+K9KlZkbudleK9VnXQhnYJvKxbncjLt7qfA2dtE2hcG7sN1NdB+3nT62X/1uNUfMpuNbkhuG2+0eZdvtgz0cLSedKxHWAgWggKUCNtjWgS29NXOaG8xpajCtidP8V91eK3O6OE1hcP2VxlTphjfRmkvEubE5pgq5bRkh53Y3vLuwbR8kr9YX069Hyx2z6RiV5HbjVsnnb7t9EOS2vKLhY1Cg8ArYYFvJZ/Nb9tyywVR2azCb7d22ym/FanczWxkKrYvZ3LmL3bbkdzewyUwTth3em5jtWpKW8nNE8uiz5anF5C45nr13H+SWxwzaUKCcCgTKbbPnZkgTv93wzN6a3Da/5c8zv90aTGvXztnMb9M4pq4Rct/EtgiGU//sL/8x9dFPnUmpJzeXpKWM7Zz6bHnWgdzezKa/brt9UIqGNhQolQKtppMHpCkXhbcJ/Trh3DaTmxtuEXIJaWr3D0zu+3qUI+c6s2Vum9uMcKfBtJZtQW4Gtkxyb6a32WpzYJwaJrd9ZLJBB8lXE/WuzmAb5tuM7TSfI1IAZtPBTeRGhtub38d/G0SeO6GrIRabZQUqlZnXxi+/8sv/4+n4b4M0/GKWNzuJbbPBtsJmDpLLDDfjWeE3W23ptj2YLSluZraS3jbmtgcmd54Yc77OUXG9YYQ3k1sYbg6PG/PcZmyn9hyRwjCbDm4itze38FdEy5O4FGKZWVagUpl55Zf/t+32QWY2NcrZz8IG25LTMjCuYFsBNoNcApvbTG5y3kZauw4/7u22z9/njWTbvclvprXMarPtZmxvmGlmtlsf7l5iu2DMbrfbFASD4fa+NUGFWpYBg22LXYFWc1Xx2RLexbsM+goYFNvkvCXI2YtLThvb7LyZ2ZLWxnZXbFzx2cYI+fn7cgvNQXJy3sxvZjY5bJPPluVpytArPcN2UQ/WVnO1UpkBub3J3ffL+9tuHyxzes/30oYPFEaBan1Rclppl9Bw22Cbwcy07h+YVKy2kdM0k2kt33qkt2Vs3Gy43dz2+ftbvhiXW+vcCliGxxVmm+CdoSD54K/VwpyT+o7Ac/symz4AcusHT7g5rebqUmOlWl9E3YAj4IsMDdlEVwMF1fLta+OXS5XhDlRJzsxWGgRjG4ozvy3dtuS32XYzv9cz3Fu+GH/r0AiTmzbJgO0U3HZyj/969bvVYjObLrvkuS3pVeaPgdzhOC2/1Wqu3hm/e/n7by5//83wtRtP5kblX8vWbjVXW0/vZQqEQ7UFyWmlDbetIFl5y/Hn0KiWuW03eDOtud8XNzbhzcDe6LTdPzC55YtxIjdvtrO6dUhv9t7m2Lgxt20y2ZzeDuC2k3v8V1Fj4/rFke6yy4xky31HhZp+8NjPoRtEYja/Vioz9kso2CdbzdWXt65nx3BTIMQjtw1sM/CUBgNbzudwtKQ4td1e9309qpDbmNKWsXEDsynJzeRebzCzpdt+69DIJrCVaDnzm3PbXI/mAu8A2E7IbZfBZ8uLIDy3PbmR55ZHjn271VwdvnaDgc2eO1N20353on+y1Vx9fvZU69ls9EXFuITjvw0qJpvevjZ+uYR5DZvcNqOa4U25bS4d54ZOa7bU/Ceeo9eQKwjf9NZKMRoBW5SkEbOZ3Byxd7CtdwPTga2TO2IleRJuu2zMpnMeeW57cpcnEhMXD8jJAdtST4eCx/a2nt6TM7PQ1sn92vjlct6tWmKbgc0IpwYbbp3c+hwCtnTb1FZorVtts+Fmt71eicbMVty2uSrNbaA0NtwRsR37UzvLyWy6WKC2HORODhtGt31n/G5ya8z4klvPZpcP7Hbi5Nn7N1RbOP7bIE8l9Nn0m1hiW0KaecwzyUnzfDbWsqEzW6c1zaHctoS32XZveG5ptZXc9luHRlRss9U25razie0yM5sO01ZztVpfRK8wX35vu30QnjsQbshwK0Hy0vKg3W6/vHV9ecf2bGI70C9b1A/bV5L7um1JaG5zPJzm6OR2c9uS2QarLXz2K986nb544kpy3mBnFUpWO45K8j03Z2ky99uO0W0fmWwU9fgLsV/Hfxv0RVfJPwByBz2uiNx3xu/SVGZmM7afnz0VVEZ8PjUFwrltvd+2t9VmkHOE3COxLd222WeLkjQGNjeUMH6A3La02qaqNCpJezD1iZySxfaem9kqDEntuPRYEcjte18CcnscP8Y/UQFaacvQWBOqR1vesd1JbzdXeT4amVLAEttsXhUocm6bwGyEt5vJ9rDaMlpOFDfyW7HaSr9tZ1jyHytmqx0ht/18eueLf/+FJzO2X/1uNfrzthEbdztVEDAHud2ODcyPpMCLheUDu5d3bF8+sDtrxeSR9qtYX7bENqexucEgl07au63z25jeZk4bwuPCZ78tKtHYanNuWz5KpAve3rltk8lW+m2nhG3Exn1PtOO/DSLb7cFveG7fQwgfUBSgxLaDbaS3FWmy9DYQthWrzd6aGvyW4a1wmubTTH71jZYzxRXDrVtt6bYpNt4FbCXDzfzWe3+5wJuC5P7YXmqsRHTbiI1bniNDtQV6roYHvcr8J5Db8kDCx0iB52dPEbM7hhtx8kweGTbY5ki4YrV5PnPat2Ez3Apz2tttS4fNbSpJo+pxYraB3DqwdXK7dwBLHNvw2fZnCqXfyHbDeRtvUEBu+8Op5J98Mje6yWwY7qweDfaV5LrPZoRLky3b0ltzJRo32G0b4+Q+leTn7xutNsGbU9oMbG505bmN8JZVaRq5bd12tb4Y2m2D2eFOlqXGCmLmRmzTs8JKOABkuAOptN9y7oCP7VWw3T62NzujnJb2p9F33MZtG5mtWG0JbNn28N9MbrfaNLbdSnjcI6u95YtxGR43AJtprffb9mQ2P2/b322HBnq++gAAEM9JREFUxnb/lSI/10s/+GKfA3iD3LEfVCVZYFd4fN1qE8KdgU4RKs/YQUDY3vf1aIzT/nNj+74e3X9ujCbZ5plujf6ByY9+mtLd9kc/TRG8P/ppysNqc3icgO0s6kpVvjpPy75S5VenMVKjHtjc4D7Z/aPz8unatm57qbESoowczI7r1GB4I2wuKY5oeVwHWPGWIyvROpXkIHeGf2YafoofNVutL+pT69lspTIjXyuVmSdzo/T6ZG409PRw+sKTudGH0xea81cfTl+wmS798POWL8aN5N73tbOoB1OfyFfZxzpc+/n0zgdTnzyf3vlw+kKlMmPltoNiG7Hx2M8RwFsym9uIlsd+pOV6ga1ns2afTd3ANuCdzVHKc618LBvvPGV1Y3LSGeuT03PvxQK/tp7Nuk5P7zkPad2Ymktjm9P8Vac9f1VOa48v0ltq8Ova44udqXbaadROd01znx8aHuUCNKXxYOqTlzOfek2V3S83pufTO19Wdj+f3knTi3//ReEx98zmxlrtdCLYhs+O5Qh2WwiNYwznTeTedvsgyO12qJRqfuvpPQfY3XhW325gmwrLn5899WRuFDHzjBwnOrB1cqvA3iA0o7r19N4mqiW2idkauZnim6hmZlNDI/fD6Qvks3W3PXDm/MuZT9fmPjdgu7LbmbkBbG4o5JYIZ1TLxtrc51bYHqot2LttMDvpc4CuMtX6ImrWQO6kD7YMLp+Of+d13YE9mRt1xhs/tteL0N201uvUnp899fLW9Y6f28h8A+cp//qMbWows72s9tN7Dsg1eDeXxlR+m9y2j9Umn625bbLaOrO3fDH+cPoCATsQuclwS9tNntvovG3dtj22weyUD/R2uw3zjdry9I+63qzxxULr6b2Xt66/vHXdGWPcA9XSc3ObG5Lisn1g9/KB3YRwh+JP7znkwL+0FGBsS2Bz2xAkNzHbAGxPn20IjLPJVmLj628Vqy3hffn7b4Iy28NqG5n94t9/scV2tb5o47bB7LQO7671sCcoOb8RLe86LIr4hhw2eS+GtyEwziR247Q+/8Du9rG9KrBfLPDJVUQ5M7dPjO0obpuxLd22YsfDRdGb81fXHl88NDxqjJDvPDH2cPoCJcJjgbdbntsW2zZu+9XvVkv+oKGenwSdY73E/hvk7vlB2JsNeLFA/tsrTq6jen2gckI1XHVvfrjutTK22WFzw2C1qTDNznDT7dfm8tfXq8zkt3KjeCZ9d6mxQt21dXIP/lrtXIFfLBgi5JzY1tLbRsPtxmzHbdvntr2HW+m/Uq3WF+Xeot1DBehQa7fblP/mMdfKUMUGcvfwwOv9ql8sGMy3Edg7tjsduJ/hgYS9/9FoCxRAOm83KsmpYSC3idlkrBU/zZdE494uNVZoGBPjX+XMrybqr3zbGRxNhsffPn9/cxVGbHNtuVaSZkxsx5Pb9sA2mC1/18y2KYRekio21JZn9jhMYcOcnLQ2PlqnDI0QfmC3U8WGfxlTYNMN+wKb+4Bp5DYHydfLDFvPZhWcU0naVxP1LYOzWwZnn8yNcmG5Uq1GdeZvbwxoKpm95YvxSz/8vFY77Rx47XbbDdsmw81W27IeLUBue6i24IZtxMYzduS7bs7mzeC6C+dEeFEtOMjteiiU4A9Ows6d3DDZ2TwEGNscbZaG2+C2OU4uKskZ25LQdPVzst3d/bbpbf9IjbB9aHi0qxtYd0na8LUbZLUVw73zxBhFxZtLY46wG9g2hMq1CLmb1fboxm2b2x78tWrE9qvfrSI2ns0TwHurOmfF+oeWGivSiNPzx4rxFDKQ2/swKPZfW0/vbaa6RZwcPjuzvztjW9LaNUJO/b7k6wa8dXJ3sP1sVsf2nfG7xOw/3WhvGZy9M363i9yiqpwGNNWz2pe//8aIbSpM67yarLZH1+0YcttGbIPZmT36g26YNOKUEVdAzkOS5a4Bcgc9GArz+VZztWuI0/XycqfbGP5lVQHGdhS37ZHbdoLkWu/tPTed8DhPe27OdmF7Y6wV6vfFbptHNu0fmFyb+9wf2+65bY6T80ArHlY7QJBcxzaYndUjP4btkl6cFkeOXGF5LqLrqFCL4YDI7yJeLGwa7vW6cYTHs/xjMrYVt+0THu8eboWtdlcHMM5tdwfJn8yNbhmcJZ/N5N403BvMXqudpn5fSni8k9Vex/ba3OdKkLzLbVN4XL5u1KYxtmV628ttWw5uOvhrVfbbBrOzfOgntG2+LD/+26AsWc9UmB2pnISOiuwvVo5PDqud5d+rE8feGJDceWtZmLYRG5eds2Vi2wG5xLYY35SL0SS89Qy3YrU5Tk5ZbTe3bZPbJmZLYEvPbYS3bW5bDrfy6nerQzWMHJTl4z+9bdNZTuumJ/kM1RbYoBPUda570937r/YRe4wokN4xkbE1ORnujdFXkNXO2I+jbo6b23Yd3JTLyIXhtnfbT+ZGqRiN3far362S5+4Y7g23rVttIrdTQL5htX3ctntum922AmwjswP0226324O/VvuvOBOMi3qs4b1Jgc0z0PRXmifpXqnM6Iz3hj1B3e2VoY70tvsvUPy/ODaLSsoP7HbcG/5lWAG+aHT8QCi3zdiWhrvLbW/EyZ/MjXJim8lN2P7op6lOhrt2+uH0Ber3xYltYnb/wKQzLNoGtl/OfOoTJKf09kZsnOvRPIrJ5RNEuG3rtjP8Q2PTcq+APFdD7MxSY4Um/QG9Q7UF3GWGkLRgX6E4OSLk2f9Z+VIQLDwurDbXo8nEthok765Kk3FyTm9vGZwdvnaDHtZ5/LdBCWyOkDux9A1mU8MH2ybDbbTacqwVfWRyYDv7RzK2MIACnXtqmR4L8G18tJgKUD05IuTZ/3UZ21HcNpPb123TGOPN+avkuclwc5z87R8rZLh1q03kllbbWEluk9tmz23kNzts2QC2s38kYwuhABSIpMCTudFlDIsWScKUvszYVtx2Qrlt2YebR1yRhvujn6ZkVps995Yvxjetdu00e24vt22y2jI8rlSlEad1qx0st53S74bVQAEoAAXiVWC9G1hn4Ml4l4ylxaeAIVQWKrft77ZFJTmRe+3xRRp0ha32lsFZx1KLV2Y2NTpWWzDbKrfN8BYZbqPPlnFyabX1ftv0yeWnKzT1xfeLYElQAApAgR4psP58EfTY7pH6AVbr5raT67fNhnvt8UUuT2PDzeSWzO5YbQFsK7dt6rHtESF3KyNXsM1PAwO2Axxn+CgUgAJZV2D9sZ4oI8/6z9RuM7aj5Lb9K8k1t03wfjh9YcvgLBvuvi9/d3PbjtVmbG80dLftmtvuHpk8ittuzl+tVGaeT+8EtrN/eGMLoQAUsFWARjmlGKztd/C5XijA2I6S26Yacp9K8o0+YBwkp/K0Q8POoGk8Gd32/nNjHWZvADui22Zsy/S2l9sWz9tee3wR2O7FoYp1QgEokLACrWezwHbCGseweMZ2aLdNVlthttoBTHPba48vSsOt+Gzy3Bwn71htYrYgt+621cFN/eLkcrgVj2HJZSU5sB3DYYdFQAEoAAWgQDgFGNuK2w6U2w7htrkn2Nrji9Jw9335O9OaGm+fv0+duR2HLZhNhturktyF2Wy1ZcOjHk3NbcNthzvU8C0oAAWgABSIqEDISnIe33RjZHLObUvP3Vm46QlgsiqtOX+VMtyc1aaAOcObx2DR4a277eRy29X6IqEdbjviUYevQwEoAAWgQHgF3Ny2a79tbXw0Y+8vNUjendiWVpvGV2HDzbRWrTb7bG6sD5fm5ba561d3PRoVkytW28dtI7cd/hDDN6EAFIACUCA+BRjbgXPbGr/Zc9NYafZue+3xRTLcSob7lW/vq1a7m9m62zbktu2YzUluY2Eap72dgDmC5PEdflgSFIACUAAKBFOAsR0gt+0HbAO2/dw2Z7hlJbnzcJHaaTU23k1uL7fNwObGxogrbLWVSnLJ7LW5z5/MjZILl6OvANvBjjB8GgpAASgABWJUgLEdwG1ruW2Ok4fLbVOcXGa4KUK+WUBO8NZK0nS3bchtc6h8g9lyxBU22dxgQnP/bMlyuO0Yjz0sCgpAASgABQIrwNhW3LZrbtvEbCU8Hs5tk+Fmt+2MQM5Wmxsauf3dtrvVZlRzDFx6a3bVwHbgowpfgAJQAApAgSQUCFlJTkFyESpnbAdy29R1m18pw/32j5VXvr3/9vn7qtWm2Hh3hFx32665bTt4S0ID20kcclgmFIACUAAKRFLAzW2H6Lctn9ppX0lOVeUUJydyHxoeNTDbJU4exW3LxLZeSQ5sRzqw8GUoAAWgABRIQgHGdoDctvDZlNUOndtWmM3wdhq1051XjpBrhlt32xFz23DbSRxjWCYUgAJQAArEpgBjOwu5bVdaa8COMia5sYwcbju2QwoLggJQAApAgeQUYGwHdtvCc4fLbeuDrnTcNvts8tzSbXfzW3fblrltJrdHVRqC5MkddVgyFIACUAAKhFSAsa247RC5bVmPZp/b7qD68cWuBpNbMnt9WDQneE6NhEdJ88b2y8puPLgz5DGHr0EBKAAFoEA4BSJVkm8MSM7pba+SNO0JYNJqqxluI7OZ34LZuts25La1GnKqRFPq0fQ+YN7Ybj2bBbbDHXX4FhSAAlAACoRXwM1th+u3LQ131+CmFqOk+UTIZY/tDcOtY1sNkvNYK93w5iC5hLesR5PDqhjnLzVWgO3whx2+CQWgABSAAuEUYGzHktuWhruD7af3+HlfSkP22N6MkFtbbTLWPh3AZj51QK6Nj8ZPEwmd2wa2wx1v+BYUgAJQAApEUoCxnVBuW19s69ksTWTo+a1Pg0Zno++Kkdqc5bfb7RcLhvC4n9Vmz61HyOG2Ix1V+DIUgAJQAAokpABjO7Db9sxtOwnv5ipvs2zzzBgbreYqYdsAb5PbVoDNnlvGw71z23DbMf58WBQUgAJQAArYKsDYVmxx9Ny2vkCPOVy4HsyCbxj31tN7rsAmbGvw1sktmQ23bXsA4XNQAApAASiQmgKd9HNz1Q3eTFM1gi3C1G6V5E4m27OAfDOfLXt/ccW43hA15NwHTNagqeSmILkG7BCV5PxYMMY53HZqRylWBAWgABSAApsKhAG2xmzjcCud8jQXeFN5mpncRHEF27KS3I/fkuVO9ZlGbrbavpXkD6Y+4Q9TLP3h9IVqfbHVXEUl+eZhhBYUgAJQAAqkowBjmxpKHNvLbYvcNmNbVpJvum1Pz+3aaVsfIo3IvdH7iwz3y5lPZVbbbLi7K8kJwxLYbrltB8+yFG49Js+/C7DNUqABBaAAFIACKSnA2FaAHSi3Td21ZaftTX67u21zBzC3h4iQ+Tb5bIntLp/Nvb9Mblvx0MYxyav1xaXGitsvAWy7KYP5UAAKQAEokJQCjO3AbluMSU7p7U1UL42pEXKT4ZYDpXVFy7nrtmK4OU7uabhVcpuC5Jb9toHtpA47LBcKQAEoAAXCKcDYVty2T3i8m9kcJDcYbm18NM5qq+FxLkxjbCvpbaJ1N7OVULkNs9lnK3FyvZIc2A53UOFbUAAKQAEokIgCkSrJRW7bx22T1TYZbnOcnLHt5rZFqJxy25zS5kYXvzXDzeTmrDY1JLnXHl8EthM57LBQKAAFoAAUCK2Am9sOlNt2ddsWiW2D52ZsR3TbTGstt23sAyaZTR29gO3QxxW+CAWgABSAAokowNiOkttmbKvpbca2yWobgC3r0RSrbREhN1htJrepmFyx2kpV2lrtdKUyY1OS9v8BtjYS18KpdlAAAAAASUVORK5CYII=;" vertex="1" parent="1">
          <mxGeometry x="501.35999999999996" y="737.5" width="107.28" height="45" as="geometry" />
        </mxCell>
      </root>
    </mxGraphModel>
  </diagram>
</mxfile>
